<svg xmlns="http://www.w3.org/2000/svg" width="110" height="110" viewBox="0 0 110 110"><g><g><g><path fill="#868588" d="M15.628 90.2h-.076l-2.883 6.448h5.917z"/></g><g><path fill="#868588" d="M44.759 93.386c0-3.793-2.807-6.676-6.6-6.676H34.82v13.428h3.338c3.869-.076 6.6-2.959 6.6-6.752z"/></g><g><path fill="#868588" d="M0 110V0h110v110zm78.214-6.828c0 .304.227.531.53.531h2.732a.519.519 0 0 0 .53-.53V83.675a.519.519 0 0 0-.53-.531h-2.731a.519.519 0 0 0-.531.53zM53.559 83.07c-.456 0-.683.38-.456.759l9.104 19.8c.152.151.303.303.53.303h.304c.304 0 .456-.152.531-.303l9.104-19.8c.152-.38-.076-.759-.531-.759H69.11c-.303 0-.455.152-.53.303l-5.614 12.67h-.228l-5.614-12.67c-.076-.151-.303-.303-.53-.303zm-22.531 20.103c0 .304.227.531.53.531h6.98c5.69 0 10.317-4.627 10.317-10.317 0-5.614-4.627-10.241-10.317-10.241h-6.98a.519.519 0 0 0-.53.53zm-25.11-.227c-.228.38 0 .758.454.758h2.58c.455 0 .682-.303.834-.606l1.442-3.187h8.875l1.442 3.187c.152.455.38.606.834.606h2.58c.455 0 .682-.379.53-.758l-9.027-19.8c-.152-.152-.228-.304-.531-.304h-.303c-.304 0-.456.152-.531.304l-9.18 19.8z"/></g></g></g></svg>