<svg xmlns="http://www.w3.org/2000/svg" xmlns:xlink="http://www.w3.org/1999/xlink" width="384" zoomAndPan="magnify" viewBox="0 0 288 143.999998" height="192" preserveAspectRatio="xMidYMid meet" version="1.0"><defs><clipPath id="df41f0a9ed"><path d="M 8.035156 44.246094 L 60.253906 44.246094 L 60.253906 98.292969 L 8.035156 98.292969 Z M 8.035156 44.246094 " clip-rule="nonzero"/></clipPath><clipPath id="4e5cfe6cbc"><path d="M 27.867188 86.859375 C 39.972656 86.859375 45.457031 81.921875 45.457031 71.164062 C 45.457031 60.410156 39.988281 55.472656 27.867188 55.472656 L 23.734375 55.472656 C 23.089844 55.472656 22.574219 55.988281 22.574219 56.628906 L 22.574219 86.859375 Z M 8.039062 45.40625 C 8.039062 44.761719 8.554688 44.25 9.199219 44.25 L 29.039062 44.25 C 51.195312 44.25 60.25 56.355469 60.25 71.164062 C 60.25 85.972656 51.179688 98.066406 29.039062 98.066406 L 8.039062 98.066406 L 8.039062 45.40625 " clip-rule="nonzero"/></clipPath><clipPath id="846e1a2f6f"><path d="M 0.0351562 0.246094 L 52.253906 0.246094 L 52.253906 54.160156 L 0.0351562 54.160156 Z M 0.0351562 0.246094 " clip-rule="nonzero"/></clipPath><clipPath id="5e527f85ef"><path d="M 19.867188 42.859375 C 31.972656 42.859375 37.457031 37.921875 37.457031 27.164062 C 37.457031 16.410156 31.988281 11.472656 19.867188 11.472656 L 15.734375 11.472656 C 15.089844 11.472656 14.574219 11.988281 14.574219 12.628906 L 14.574219 42.859375 Z M 0.0390625 1.40625 C 0.0390625 0.761719 0.554688 0.25 1.199219 0.25 L 21.039062 0.25 C 43.195312 0.25 52.25 12.355469 52.25 27.164062 C 52.25 41.972656 43.179688 54.066406 21.039062 54.066406 L 0.0390625 54.066406 L 0.0390625 1.40625 " clip-rule="nonzero"/></clipPath><clipPath id="0839a19993"><rect x="0" width="53" y="0" height="55"/></clipPath><clipPath id="8cdb7bd190"><path d="M 125 44.246094 L 162.5 44.246094 L 162.5 98.292969 L 125 98.292969 Z M 125 44.246094 " clip-rule="nonzero"/></clipPath><clipPath id="c99bd9b7d1"><path d="M 125.03125 45.40625 C 125.03125 44.761719 125.546875 44.25 126.191406 44.25 L 139.570312 44.25 L 139.570312 87.117188 L 162.449219 87.117188 L 162.449219 96.910156 C 162.449219 97.550781 161.933594 98.066406 161.292969 98.066406 L 125.03125 98.066406 L 125.03125 45.40625 " clip-rule="nonzero"/></clipPath><clipPath id="0d1d9396e0"><path d="M 0 0.246094 L 37.480469 0.246094 L 37.480469 54.160156 L 0 54.160156 Z M 0 0.246094 " clip-rule="nonzero"/></clipPath><clipPath id="850912a793"><path d="M 0.03125 1.40625 C 0.03125 0.761719 0.546875 0.25 1.191406 0.25 L 14.570312 0.25 L 14.570312 43.117188 L 37.449219 43.117188 L 37.449219 52.910156 C 37.449219 53.550781 36.933594 54.066406 36.292969 54.066406 L 0.03125 54.066406 L 0.03125 1.40625 " clip-rule="nonzero"/></clipPath><clipPath id="78c8813de8"><rect x="0" width="38" y="0" height="55"/></clipPath><clipPath id="fc2f8bf0dd"><path d="M 226.035156 44.246094 L 264 44.246094 L 264 98.292969 L 226.035156 98.292969 Z M 226.035156 44.246094 " clip-rule="nonzero"/></clipPath><clipPath id="7b0a293f23"><path d="M 226.234375 45.40625 C 226.234375 44.761719 226.75 44.25 227.394531 44.25 L 263.636719 44.25 L 263.636719 54.039062 C 263.636719 54.683594 263.121094 55.199219 262.480469 55.199219 L 241.929688 55.199219 C 241.285156 55.199219 240.773438 55.714844 240.773438 56.355469 L 240.773438 64.25 L 259.167969 64.25 L 259.167969 73.945312 C 259.167969 74.574219 258.652344 75.105469 258.007812 75.105469 L 241.929688 75.105469 C 241.285156 75.105469 240.773438 75.621094 240.773438 76.261719 L 240.773438 87.132812 L 263.652344 87.132812 L 263.652344 96.925781 C 263.652344 97.566406 263.136719 98.082031 262.496094 98.082031 L 226.234375 98.082031 L 226.234375 45.40625 " clip-rule="nonzero"/></clipPath><clipPath id="fb010e1fd9"><path d="M 0.078125 0.246094 L 37.761719 0.246094 L 37.761719 54.160156 L 0.078125 54.160156 Z M 0.078125 0.246094 " clip-rule="nonzero"/></clipPath><clipPath id="30307208cd"><path d="M 0.234375 1.40625 C 0.234375 0.761719 0.75 0.25 1.394531 0.25 L 37.636719 0.25 L 37.636719 10.039062 C 37.636719 10.683594 37.121094 11.199219 36.480469 11.199219 L 15.929688 11.199219 C 15.285156 11.199219 14.773438 11.714844 14.773438 12.355469 L 14.773438 20.25 L 33.167969 20.25 L 33.167969 29.945312 C 33.167969 30.574219 32.652344 31.105469 32.007812 31.105469 L 15.929688 31.105469 C 15.285156 31.105469 14.773438 31.621094 14.773438 32.261719 L 14.773438 43.132812 L 37.652344 43.132812 L 37.652344 52.925781 C 37.652344 53.566406 37.136719 54.082031 36.496094 54.082031 L 0.234375 54.082031 L 0.234375 1.40625 " clip-rule="nonzero"/></clipPath><clipPath id="3f6cfc2250"><rect x="0" width="38" y="0" height="55"/></clipPath><clipPath id="cf6f6ee3bd"><path d="M 72.300781 44.246094 L 110 44.246094 L 110 98.292969 L 72.300781 98.292969 Z M 72.300781 44.246094 " clip-rule="nonzero"/></clipPath><clipPath id="c1e0e43385"><path d="M 72.582031 45.40625 C 72.582031 44.761719 73.097656 44.25 73.738281 44.25 L 109.984375 44.25 L 109.984375 54.039062 C 109.984375 54.683594 109.46875 55.199219 108.824219 55.199219 L 88.277344 55.199219 C 87.632812 55.199219 87.117188 55.714844 87.117188 56.355469 L 87.117188 64.25 L 105.496094 64.25 L 105.496094 73.945312 C 105.496094 74.574219 104.980469 75.105469 104.339844 75.105469 L 88.277344 75.105469 C 87.632812 75.105469 87.117188 75.621094 87.117188 76.261719 L 87.117188 87.132812 L 109.984375 87.132812 L 109.984375 96.925781 C 109.984375 97.566406 109.46875 98.082031 108.824219 98.082031 L 72.582031 98.082031 L 72.582031 45.40625 " clip-rule="nonzero"/></clipPath><clipPath id="3136e4a3b9"><path d="M 0.480469 0.246094 L 38 0.246094 L 38 54.160156 L 0.480469 54.160156 Z M 0.480469 0.246094 " clip-rule="nonzero"/></clipPath><clipPath id="326c7d72dd"><path d="M 0.582031 1.40625 C 0.582031 0.761719 1.097656 0.25 1.738281 0.25 L 37.984375 0.25 L 37.984375 10.039062 C 37.984375 10.683594 37.46875 11.199219 36.824219 11.199219 L 16.277344 11.199219 C 15.632812 11.199219 15.117188 11.714844 15.117188 12.355469 L 15.117188 20.25 L 33.496094 20.25 L 33.496094 29.945312 C 33.496094 30.574219 32.980469 31.105469 32.339844 31.105469 L 16.277344 31.105469 C 15.632812 31.105469 15.117188 31.621094 15.117188 32.261719 L 15.117188 43.132812 L 37.984375 43.132812 L 37.984375 52.925781 C 37.984375 53.566406 37.46875 54.082031 36.824219 54.082031 L 0.582031 54.082031 L 0.582031 1.40625 " clip-rule="nonzero"/></clipPath><clipPath id="9100de96b0"><rect x="0" width="38" y="0" height="55"/></clipPath><clipPath id="e3d19e78ae"><path d="M 166.878906 33.292969 L 219.828125 33.292969 L 219.828125 111 L 166.878906 111 Z M 166.878906 33.292969 " clip-rule="nonzero"/></clipPath><clipPath id="bdf3bf9c47"><path d="M 205.445312 34.007812 L 186.9375 78.753906 L 181.230469 64.957031 C 181.054688 64.523438 180.636719 64.25 180.152344 64.25 L 166.9375 64.25 L 185.859375 109.996094 C 186.261719 110.945312 187.613281 110.945312 188 109.996094 L 219.742188 33.296875 L 206.523438 33.296875 C 206.058594 33.296875 205.636719 33.589844 205.460938 34.007812 " clip-rule="nonzero"/></clipPath><clipPath id="5b209873c7"><path d="M 0.878906 0.292969 L 53.828125 0.292969 L 53.828125 78 L 0.878906 78 Z M 0.878906 0.292969 " clip-rule="nonzero"/></clipPath><clipPath id="f79f546172"><path d="M 39.445312 1.007812 L 20.9375 45.753906 L 15.230469 31.957031 C 15.054688 31.523438 14.636719 31.25 14.152344 31.25 L 0.9375 31.25 L 19.859375 76.996094 C 20.261719 77.945312 21.613281 77.945312 22 76.996094 L 53.742188 0.296875 L 40.523438 0.296875 C 40.058594 0.296875 39.636719 0.589844 39.460938 1.007812 " clip-rule="nonzero"/></clipPath><clipPath id="43cd4575a8"><rect x="0" width="54" y="0" height="78"/></clipPath><clipPath id="e56baa76e7"><path d="M 269.816406 43.71875 L 278.332031 43.71875 L 278.332031 46.023438 L 269.816406 46.023438 Z M 273.339844 46.023438 L 275.273438 46.023438 L 275.273438 49.382812 L 273.339844 49.382812 Z M 269.816406 49.382812 L 278.332031 49.382812 L 278.332031 51.671875 L 269.816406 51.671875 Z M 269.816406 49.382812 " clip-rule="nonzero"/></clipPath><clipPath id="9b1d0b422b"><path d="M 0.816406 0.71875 L 9.332031 0.71875 L 9.332031 3.023438 L 0.816406 3.023438 Z M 4.339844 3.023438 L 6.273438 3.023438 L 6.273438 6.382812 L 4.339844 6.382812 Z M 0.816406 6.382812 L 9.332031 6.382812 L 9.332031 8.671875 L 0.816406 8.671875 Z M 0.816406 6.382812 " clip-rule="nonzero"/></clipPath><clipPath id="eb3d5e7dde"><rect x="0" width="10" y="0" height="9"/></clipPath><clipPath id="9aaed4da19"><path d="M 269.816406 54.550781 L 278.332031 54.550781 L 278.332031 56.855469 L 269.816406 56.855469 Z M 273.449219 56.855469 L 275.164062 56.855469 L 275.164062 59.769531 L 273.449219 59.769531 Z M 269.816406 56.855469 L 271.546875 56.855469 L 271.546875 60.472656 L 269.816406 60.472656 Z M 276.601562 56.855469 L 278.332031 56.855469 L 278.332031 60.488281 L 276.601562 60.488281 Z M 276.601562 56.855469 " clip-rule="nonzero"/></clipPath><clipPath id="ad4eb26f22"><path d="M 0.816406 0.550781 L 9.332031 0.550781 L 9.332031 2.855469 L 0.816406 2.855469 Z M 4.449219 2.855469 L 6.164062 2.855469 L 6.164062 5.769531 L 4.449219 5.769531 Z M 0.816406 2.855469 L 2.546875 2.855469 L 2.546875 6.472656 L 0.816406 6.472656 Z M 7.601562 2.855469 L 9.332031 2.855469 L 9.332031 6.488281 L 7.601562 6.488281 Z M 7.601562 2.855469 " clip-rule="nonzero"/></clipPath><clipPath id="b7e5fb6d1a"><rect x="0" width="10" y="0" height="7"/></clipPath><clipPath id="7172d34790"><path d="M 269.816406 73.355469 L 278.332031 73.355469 L 278.332031 75.660156 L 269.816406 75.660156 Z M 269.816406 75.660156 L 271.546875 75.660156 L 271.546875 79.273438 L 269.816406 79.273438 Z M 269.816406 75.660156 " clip-rule="nonzero"/></clipPath><clipPath id="b997b84311"><path d="M 0.816406 0.355469 L 9.332031 0.355469 L 9.332031 2.660156 L 0.816406 2.660156 Z M 0.816406 2.660156 L 2.546875 2.660156 L 2.546875 6.273438 L 0.816406 6.273438 Z M 0.816406 2.660156 " clip-rule="nonzero"/></clipPath><clipPath id="6201c8efdc"><rect x="0" width="10" y="0" height="7"/></clipPath><clipPath id="c171d7280d"><path d="M 276.601562 79.433594 L 278.332031 79.433594 L 278.332031 82.171875 L 276.601562 82.171875 Z M 269.816406 82.171875 L 278.332031 82.171875 L 278.332031 84.476562 L 269.816406 84.476562 Z M 276.601562 84.476562 L 278.332031 84.476562 L 278.332031 87.210938 L 276.601562 87.210938 Z M 276.601562 84.476562 " clip-rule="nonzero"/></clipPath><clipPath id="686688d21e"><path d="M 7.601562 0.433594 L 9.332031 0.433594 L 9.332031 3.171875 L 7.601562 3.171875 Z M 0.816406 3.171875 L 9.332031 3.171875 L 9.332031 5.476562 L 0.816406 5.476562 Z M 7.601562 5.476562 L 9.332031 5.476562 L 9.332031 8.210938 L 7.601562 8.210938 Z M 7.601562 5.476562 " clip-rule="nonzero"/></clipPath><clipPath id="3be0cf582d"><rect x="0" width="10" y="0" height="9"/></clipPath><clipPath id="f47c4365be"><path d="M 269.816406 89.324219 L 278.332031 89.324219 L 278.332031 91.613281 L 269.816406 91.613281 Z M 273.339844 91.613281 L 278.332031 91.613281 L 278.332031 91.628906 L 273.339844 91.628906 Z M 273.339844 91.628906 L 275.273438 91.628906 L 275.273438 94.972656 L 273.339844 94.972656 Z M 269.816406 94.972656 L 275.273438 94.972656 L 275.273438 94.988281 L 269.816406 94.988281 Z M 269.816406 94.988281 L 278.332031 94.988281 L 278.332031 97.292969 L 269.816406 97.292969 Z M 269.816406 94.988281 " clip-rule="nonzero"/></clipPath><clipPath id="082d106754"><path d="M 0.816406 0.324219 L 9.332031 0.324219 L 9.332031 2.613281 L 0.816406 2.613281 Z M 4.339844 2.613281 L 9.332031 2.613281 L 9.332031 2.628906 L 4.339844 2.628906 Z M 4.339844 2.628906 L 6.273438 2.628906 L 6.273438 5.972656 L 4.339844 5.972656 Z M 0.816406 5.972656 L 6.273438 5.972656 L 6.273438 5.988281 L 0.816406 5.988281 Z M 0.816406 5.988281 L 9.332031 5.988281 L 9.332031 8.292969 L 0.816406 8.292969 Z M 0.816406 5.988281 " clip-rule="nonzero"/></clipPath><clipPath id="8e7799d21d"><rect x="0" width="10" y="0" height="9"/></clipPath><clipPath id="d1cb770ac2"><path d="M 269.765625 62.144531 L 278.382812 62.144531 L 278.382812 71.242188 L 269.765625 71.242188 Z M 269.765625 62.144531 " clip-rule="nonzero"/></clipPath><clipPath id="ca1d7b46b1"><path d="M 273.128906 65.738281 L 275.722656 66.730469 L 273.128906 67.722656 Z M 269.816406 69 L 269.816406 71.242188 L 278.28125 67.722656 L 278.316406 67.707031 L 278.316406 65.753906 L 278.28125 65.738281 L 269.816406 62.234375 L 269.816406 64.472656 L 271.625 65.175781 L 271.625 68.3125 L 269.816406 69 " clip-rule="nonzero"/></clipPath><clipPath id="7a1cd5bec5"><path d="M 0.765625 0.160156 L 9.382812 0.160156 L 9.382812 9.242188 L 0.765625 9.242188 Z M 0.765625 0.160156 " clip-rule="nonzero"/></clipPath><clipPath id="c740faa8d2"><path d="M 4.128906 3.738281 L 6.722656 4.730469 L 4.128906 5.722656 Z M 0.816406 7 L 0.816406 9.242188 L 9.28125 5.722656 L 9.316406 5.707031 L 9.316406 3.753906 L 9.28125 3.738281 L 0.816406 0.234375 L 0.816406 2.472656 L 2.625 3.175781 L 2.625 6.3125 L 0.816406 7 " clip-rule="nonzero"/></clipPath><clipPath id="8c15b4691f"><rect x="0" width="10" y="0" height="10"/></clipPath></defs><g clip-path="url(#df41f0a9ed)"><g clip-path="url(#4e5cfe6cbc)"><g transform="matrix(1, 0, 0, 1, 8, 44)"><g clip-path="url(#0839a19993)"><g clip-path="url(#846e1a2f6f)"><g clip-path="url(#5e527f85ef)"><rect x="-71.36" width="414.72" fill="#58bfc2" height="207.359996" y="-75.679999" fill-opacity="1"/></g></g></g></g></g></g><g clip-path="url(#8cdb7bd190)"><g clip-path="url(#c99bd9b7d1)"><g transform="matrix(1, 0, 0, 1, 125, 44)"><g clip-path="url(#78c8813de8)"><g clip-path="url(#0d1d9396e0)"><g clip-path="url(#850912a793)"><rect x="-188.36" width="414.72" fill="#58bfc2" height="207.359996" y="-75.679999" fill-opacity="1"/></g></g></g></g></g></g><g clip-path="url(#fc2f8bf0dd)"><g clip-path="url(#7b0a293f23)"><g transform="matrix(1, 0, 0, 1, 226, 44)"><g clip-path="url(#3f6cfc2250)"><g clip-path="url(#fb010e1fd9)"><g clip-path="url(#30307208cd)"><rect x="-289.36" width="414.72" fill="#58bfc2" height="207.359996" y="-75.679999" fill-opacity="1"/></g></g></g></g></g></g><g clip-path="url(#cf6f6ee3bd)"><g clip-path="url(#c1e0e43385)"><g transform="matrix(1, 0, 0, 1, 72, 44)"><g clip-path="url(#9100de96b0)"><g clip-path="url(#3136e4a3b9)"><g clip-path="url(#326c7d72dd)"><rect x="-135.36" width="414.72" fill="#58bfc2" height="207.359996" y="-75.679999" fill-opacity="1"/></g></g></g></g></g></g><g clip-path="url(#e3d19e78ae)"><g clip-path="url(#bdf3bf9c47)"><g transform="matrix(1, 0, 0, 1, 166, 33)"><g clip-path="url(#43cd4575a8)"><g clip-path="url(#5b209873c7)"><g clip-path="url(#f79f546172)"><rect x="-229.36" width="414.72" fill="#58bfc2" height="207.359996" y="-64.679999" fill-opacity="1"/></g></g></g></g></g></g><g clip-path="url(#e56baa76e7)"><g transform="matrix(1, 0, 0, 1, 269, 43)"><g clip-path="url(#eb3d5e7dde)"><g clip-path="url(#9b1d0b422b)"><rect x="-332.36" width="414.72" fill="#58bfc2" height="207.359996" y="-74.679999" fill-opacity="1"/></g></g></g></g><g clip-path="url(#9aaed4da19)"><g transform="matrix(1, 0, 0, 1, 269, 54)"><g clip-path="url(#b7e5fb6d1a)"><g clip-path="url(#ad4eb26f22)"><rect x="-332.36" width="414.72" fill="#58bfc2" height="207.359996" y="-85.679999" fill-opacity="1"/></g></g></g></g><g clip-path="url(#7172d34790)"><g transform="matrix(1, 0, 0, 1, 269, 73)"><g clip-path="url(#6201c8efdc)"><g clip-path="url(#b997b84311)"><rect x="-332.36" width="414.72" fill="#58bfc2" height="207.359996" y="-104.679999" fill-opacity="1"/></g></g></g></g><g clip-path="url(#c171d7280d)"><g transform="matrix(1, 0, 0, 1, 269, 79)"><g clip-path="url(#3be0cf582d)"><g clip-path="url(#686688d21e)"><rect x="-332.36" width="414.72" fill="#58bfc2" height="207.359996" y="-110.679999" fill-opacity="1"/></g></g></g></g><g clip-path="url(#f47c4365be)"><g transform="matrix(1, 0, 0, 1, 269, 89)"><g clip-path="url(#8e7799d21d)"><g clip-path="url(#082d106754)"><rect x="-332.36" width="414.72" fill="#58bfc2" height="207.359996" y="-120.679999" fill-opacity="1"/></g></g></g></g><g clip-path="url(#d1cb770ac2)"><g clip-path="url(#ca1d7b46b1)"><g transform="matrix(1, 0, 0, 1, 269, 62)"><g clip-path="url(#8c15b4691f)"><g clip-path="url(#7a1cd5bec5)"><g clip-path="url(#c740faa8d2)"><rect x="-332.36" width="414.72" fill="#58bfc2" height="207.359996" y="-93.679999" fill-opacity="1"/></g></g></g></g></g></g></svg>