<svg width="131" height="54" viewBox="0 0 131 54" fill="none" xmlns="http://www.w3.org/2000/svg">
<path d="M121.82 1.48321C120.867 2.43343 120.33 3.72283 120.33 5.06606C120.33 6.40929 120.864 7.69868 121.82 8.6489C122.773 9.59913 124.066 10.1321 125.415 10.1321C126.765 10.1321 128.055 9.59913 129.01 8.6489C129.963 7.69868 130.5 6.40929 130.5 5.06606C130.5 3.72283 129.966 2.43343 129.01 1.48321C128.057 0.532988 126.765 0 125.415 0C124.066 0 122.775 0.532988 121.82 1.48321Z" fill="black"/>
<path d="M129.388 15.6366L121.44 15.6366V52.3426H129.388V15.6366Z" fill="black"/>
<path d="M129.388 15.6366L121.44 15.6366V52.3426H129.388V15.6366Z" fill="black"/>
<path d="M34.0084 52.3449L34.0084 29.8088C34.0084 20.2608 28.1164 14.6833 19.8628 14.6671C14.8534 14.6671 10.8751 16.503 8.44863 20.32V15.6389L0.5 15.6389L0.5 52.3449H8.44863L8.44863 32.6729C8.44863 25.1815 12.5781 22.0993 17.8169 22.0966C22.8128 22.0966 26.0652 25.0361 26.0652 30.6136L26.0652 52.3476H34.0138L34.0084 52.3449Z" fill="black"/>
<path fill-rule="evenodd" clip-rule="evenodd" d="M58.2606 14.6777C47.4888 14.6777 38.8195 23.0467 38.8195 33.9864C38.806 36.5328 39.2999 39.0551 40.2743 41.4078C41.2486 43.7605 42.6791 45.8978 44.4901 47.6932C46.2985 49.4887 48.4496 50.91 50.814 51.871C53.1783 52.832 55.71 53.3138 58.2633 53.2923C69.0863 53.2923 77.707 44.8507 77.707 33.9864C77.707 23.1221 69.1025 14.6777 58.2633 14.6777H58.2606ZM58.2606 22.3899C64.7409 22.3899 69.7476 27.3052 69.7476 33.989C69.7476 40.6729 64.7382 45.5882 58.2606 45.5882C51.7829 45.5882 46.7681 40.6729 46.7681 33.989C46.7681 27.3052 51.7775 22.3899 58.2606 22.3899Z" fill="black"/>
<path d="M115.727 15.6366L101.368 52.3426L92.1591 52.3426L77.7949 15.6366L86.4858 15.6366L96.7961 43.5349L107.031 15.6366H115.727Z" fill="black"/>
</svg>
